<svg width="31" height="31" viewBox="0 0 31 31" fill="none" xmlns="http://www.w3.org/2000/svg">
<g clip-path="url(#clip0)">
<path d="M22.5231 24.219V7.20591H22.5528L15.8776 0.155663C15.8041 0.0781029 15.6816 0.031724 15.6211 0.0104721V0.0117436C15.5605 -0.00436183 15.4672 -0.00369582 15.3942 0.0124096L15.3904 0.012894C15.2938 0.0341459 15.2015 0.0779818 15.128 0.155542L8.44711 7.20591H8.47678V24.219H8.44711L15.1393 30.8438C15.2119 30.9157 15.3008 30.9652 15.394 30.9848C15.4639 30.9995 15.5361 31.0016 15.6059 30.9869C15.699 30.9674 15.7879 30.9147 15.8605 30.8429L22.5528 24.2191H22.5231V24.219Z" fill="#40A077"/>
<path d="M22.5529 7.21638H8.44724V24.2355H22.5529V7.21638Z" fill="#4B97DD"/>
<path d="M12.138 7.21638H8.44724V24.2355H12.138V7.21638Z" fill="#A0D2FF"/>
<path d="M18.8621 7.21638H12.138V24.2355H18.8621V7.21638Z" fill="#5AB0FF"/>
<path d="M18.8621 7.2165L15.6108 0.0131319C15.5378 -0.0029735 15.4621 -0.0029735 15.3891 0.0131319L12.1378 7.2165H18.8621Z" fill="#89C6FF"/>
<path d="M18.862 7.2165H22.5528L15.8725 0.160993C15.7991 0.0834326 15.7074 0.0343897 15.6108 0.0131378L18.862 7.2165Z" fill="#5BA9F1"/>
<path d="M15.1274 0.160993L8.44711 7.2165H12.1379L15.3891 0.0131378C15.2925 0.0343897 15.2009 0.0834326 15.1274 0.160993Z" fill="#B9DEFF"/>
<path d="M12.1378 24.2356L15.394 30.989C15.4639 31.0037 15.5361 31.0037 15.6059 30.989L18.8621 24.2356H12.1378Z" fill="#5B9EDC"/>
<path d="M15.8605 30.8522L22.5528 24.2356H18.8621L15.606 30.9889C15.6991 30.9694 15.7879 30.924 15.8605 30.8522Z" fill="#478DCD"/>
<path d="M8.44711 24.2356L15.1393 30.8521C15.2119 30.924 15.3008 30.9694 15.394 30.989L12.1378 24.2356H8.44711Z" fill="#82C4FF"/>
</g>
<defs>
<clipPath id="clip0">
<rect width="31" height="31" fill="white"/>
</clipPath>
</defs>
</svg>
